<svg id="visual" viewBox="0 0 5000 600" width="5000" height="600" xmlns="http://www.w3.org/2000/svg" xmlns:xlink="http://www.w3.org/1999/xlink" version="1.1"><g stroke-width="1" stroke-linejoin="bevel"><path d="M2508 296L2792.5 272L2487 0Z" fill="#b4c4cd" stroke="#b4c4cd"></path><path d="M2792.5 272L2790.5 0L2487 0Z" fill="#999c9f" stroke="#999c9f"></path><path d="M2487 0L2194.5 0L2508 296Z" fill="#9da1a6" stroke="#9da1a6"></path><path d="M2199.5 600L2518 600L2508 296Z" fill="#adb8c0" stroke="#adb8c0"></path><path d="M2508 296L2518 600L2792.5 272Z" fill="#999c9f" stroke="#999c9f"></path><path d="M2194.5 0L2171.5 296L2508 296Z" fill="#999c9f" stroke="#999c9f"></path><path d="M2518 600L2832.5 600L2792.5 272Z" fill="#a9b2b9" stroke="#a9b2b9"></path><path d="M2792.5 272L3136 0L2790.5 0Z" fill="#bcd0da" stroke="#bcd0da"></path><path d="M3134 301L3136 0L2792.5 272Z" fill="#999c9f" stroke="#999c9f"></path><path d="M2832.5 600L3134 301L2792.5 272Z" fill="#a1a7ac" stroke="#a1a7ac"></path><path d="M2171.5 296L2199.5 600L2508 296Z" fill="#b8cad3" stroke="#b8cad3"></path><path d="M2832.5 600L3132 600L3134 301Z" fill="#adb8c0" stroke="#adb8c0"></path><path d="M2194.5 0L1886 0L2171.5 296Z" fill="#bcd0da" stroke="#bcd0da"></path><path d="M2171.5 296L1889 600L2199.5 600Z" fill="#b8cad3" stroke="#b8cad3"></path><path d="M1886 0L1879 271L2171.5 296Z" fill="#b8cad3" stroke="#b8cad3"></path><path d="M3134 301L3416.5 0L3136 0Z" fill="#999c9f" stroke="#999c9f"></path><path d="M3451.5 272L3416.5 0L3134 301Z" fill="#b4c4cd" stroke="#b4c4cd"></path><path d="M3436.5 600L3451.5 272L3134 301Z" fill="#bfd6e0" stroke="#bfd6e0"></path><path d="M1879 271L1889 600L2171.5 296Z" fill="#adb8c0" stroke="#adb8c0"></path><path d="M3132 600L3436.5 600L3134 301Z" fill="#b4c4cd" stroke="#b4c4cd"></path><path d="M1580.5 0L1591.5 312L1879 271Z" fill="#a9b2b9" stroke="#a9b2b9"></path><path d="M1879 271L1591.5 312L1889 600Z" fill="#9da1a6" stroke="#9da1a6"></path><path d="M1886 0L1580.5 0L1879 271Z" fill="#999c9f" stroke="#999c9f"></path><path d="M3451.5 272L3740 0L3416.5 0Z" fill="#b4c4cd" stroke="#b4c4cd"></path><path d="M3774 286L3740 0L3451.5 272Z" fill="#adb8c0" stroke="#adb8c0"></path><path d="M3772 600L3774 286L3451.5 272Z" fill="#bcd0da" stroke="#bcd0da"></path><path d="M1260 305L1585.5 600L1591.5 312Z" fill="#adb8c0" stroke="#adb8c0"></path><path d="M1591.5 312L1585.5 600L1889 600Z" fill="#999c9f" stroke="#999c9f"></path><path d="M3436.5 600L3772 600L3451.5 272Z" fill="#a1a7ac" stroke="#a1a7ac"></path><path d="M1580.5 0L1260 305L1591.5 312Z" fill="#adb8c0" stroke="#adb8c0"></path><path d="M1580.5 0L1237 0L1260 305Z" fill="#a1a7ac" stroke="#a1a7ac"></path><path d="M3772 600L4042.5 327L3774 286Z" fill="#a5adb3" stroke="#a5adb3"></path><path d="M3774 286L4056.5 0L3740 0Z" fill="#999c9f" stroke="#999c9f"></path><path d="M4042.5 327L4056.5 0L3774 286Z" fill="#bcd0da" stroke="#bcd0da"></path><path d="M948.5 600L1241 600L1260 305Z" fill="#a1a7ac" stroke="#a1a7ac"></path><path d="M1260 305L1241 600L1585.5 600Z" fill="#bcd0da" stroke="#bcd0da"></path><path d="M3772 600L4039.5 600L4042.5 327Z" fill="#a9b2b9" stroke="#a9b2b9"></path><path d="M4042.5 327L4346 326L4056.5 0Z" fill="#b1bec7" stroke="#b1bec7"></path><path d="M1237 0L921.5 277L1260 305Z" fill="#a1a7ac" stroke="#a1a7ac"></path><path d="M4039.5 600L4346 326L4042.5 327Z" fill="#b8cad3" stroke="#b8cad3"></path><path d="M929.5 0L921.5 277L1237 0Z" fill="#adb8c0" stroke="#adb8c0"></path><path d="M4346 326L4357 0L4056.5 0Z" fill="#b1bec7" stroke="#b1bec7"></path><path d="M921.5 277L948.5 600L1260 305Z" fill="#b4c4cd" stroke="#b4c4cd"></path><path d="M4039.5 600L4363 600L4346 326Z" fill="#b8cad3" stroke="#b8cad3"></path><path d="M4690.5 321L4691.5 0L4357 0Z" fill="#9da1a6" stroke="#9da1a6"></path><path d="M929.5 0L643 0L921.5 277Z" fill="#b4c4cd" stroke="#b4c4cd"></path><path d="M921.5 277L629 326L948.5 600Z" fill="#a5adb3" stroke="#a5adb3"></path><path d="M643 0L629 326L921.5 277Z" fill="#adb8c0" stroke="#adb8c0"></path><path d="M629 326L633 600L948.5 600Z" fill="#b4c4cd" stroke="#b4c4cd"></path><path d="M4690.5 321L4357 0L4346 326Z" fill="#bfd6e0" stroke="#bfd6e0"></path><path d="M4363 600L4690.5 321L4346 326Z" fill="#a9b2b9" stroke="#a9b2b9"></path><path d="M4363 600L4699.5 600L4690.5 321Z" fill="#a5adb3" stroke="#a5adb3"></path><path d="M4690.5 321L5000 271L4691.5 0Z" fill="#bfd6e0" stroke="#bfd6e0"></path><path d="M643 0L296.5 283L629 326Z" fill="#adb8c0" stroke="#adb8c0"></path><path d="M629 326L314.5 600L633 600Z" fill="#b4c4cd" stroke="#b4c4cd"></path><path d="M311.5 0L296.5 283L643 0Z" fill="#9da1a6" stroke="#9da1a6"></path><path d="M5000 600L5000 271L4690.5 321Z" fill="#bfd6e0" stroke="#bfd6e0"></path><path d="M5000 271L5000 0L4691.5 0Z" fill="#bfd6e0" stroke="#bfd6e0"></path><path d="M296.5 283L314.5 600L629 326Z" fill="#999c9f" stroke="#999c9f"></path><path d="M4699.5 600L5000 600L4690.5 321Z" fill="#b4c4cd" stroke="#b4c4cd"></path><path d="M311.5 0L0 0L296.5 283Z" fill="#999c9f" stroke="#999c9f"></path><path d="M296.5 283L0 324L314.5 600Z" fill="#adb8c0" stroke="#adb8c0"></path><path d="M0 0L0 324L296.5 283Z" fill="#bcd0da" stroke="#bcd0da"></path><path d="M0 324L0 600L314.5 600Z" fill="#9da1a6" stroke="#9da1a6"></path></g></svg>